<?xml version="1.0" encoding="UTF-8"?>
<svg id="Layer_1" data-name="Layer 1" xmlns="http://www.w3.org/2000/svg" viewBox="0 0 146.79 40.01">
  <defs>
    <style>
      .cls-1 {
        stroke-width: 0px;
      }

      .cls-1, .cls-2 {
        fill: #fff;
      }

      .cls-2 {
        font-family: NDLOGOS, 'ND LOGOS';
        font-size: 18.62px;
      }
    </style>
  </defs>
  <g>
    <path class="cls-1" d="m89.17,0l-3.72,13.15h-34.07l-7.11,26.05h-24.37c-.59-.22-1.01-.78-1.01-1.44,0-.42.17-.8.45-1.08h0c.28-.28.66-.45,1.08-.45h3.59c.31,0,.59-.12.79-.33.25-.25.38-.61.31-1-.09-.5-.63-.91-1.14-.91h-5.63c-.69,0-1.32-.44-1.49-1.1-.14-.56.04-1.08.39-1.44.27-.27.64-.44,1.05-.44h9.13c.31,0,.59-.12.79-.33.2-.2.33-.48.33-.79,0-.62-.5-1.12-1.12-1.12H10.82c-.84,0-1.58-.69-1.55-1.53.01-.39.18-.75.44-1.01.27-.27.64-.44,1.05-.44h12.89c.31,0,.59-.13.79-.33.25-.25.38-.61.31-1-.09-.5-.63-.91-1.14-.91H1.75c-.69,0-1.32-.44-1.49-1.1-.14-.56.04-1.08.39-1.44.27-.27.64-.44,1.05-.44h29.95c.31,0,.59-.12.79-.33.2-.19.32-.46.33-.76.02-.63-.54-1.15-1.17-1.15h-9.47c-.73,0-1.36-.54-1.42-1.26-.03-.42.12-.8.39-1.07.25-.25.59-.4.97-.4h5.03c.31,0,.59-.12.79-.33.2-.19.32-.46.33-.76.02-.63-.54-.91-1.17-.91h-11.48s-8.53,0-8.53,0c-.88,0-1.61-.73-1.61-1.61,0-.44.18-.84.47-1.14.29-.29.69-.47,1.14-.47h10.88c.31,0,.59-.12.79-.33s.33-.48.33-.79c0-.62-.5-1.12-1.12-1.12h-2.56c-.77-.01-1.46-.58-1.53-1.35,0-.05,0-.1,0-.15,0-.41.17-.78.44-1.05.01-.01.03-.03.05-.04.26-.24.61-.39,1-.39h7.58c.31,0,.59-.12.79-.33.25-.25.38-.61.31-.99-.1-.54-.6-.91-1.14-.91h-9.57s-.03,0-.05,0c-.66-.14-1.16-.73-1.16-1.43,0-.4.16-.76.43-1.03.23-.23.88-.52.88-.52h75.82Z"/>
    <rect class="cls-1" x="0" y="4.96" width="12.9" height="3.23" rx="1.47" ry="1.47"/>
    <rect class="cls-1" x="11.41" y="36.23" width="6.45" height="3.23" rx="1.47" ry="1.47"/>
  </g>
  <text class="cls-2" transform="translate(53.58 35.43)"><tspan x="0" y="0">ECSO</tspan></text>
</svg>