<?xml version="1.0" encoding="UTF-8"?>
<svg width="147" height="40" viewBox="0 0 147 40" fill="none" xmlns="http://www.w3.org/2000/svg">
  <g fill="currentColor">
    <path d="m89.17,0l-3.72,13.15h-34.07l-7.11,26.05h-24.37c-.59-.22-1.01-.78-1.01-1.44,0-.42.17-.8.45-1.08h0c.28-.28.66-.45,1.08-.45h3.59c.31,0,.59-.12.79-.33.25-.25.38-.61.31-1-.09-.5-.63-.91-1.14-.91h-5.63c-.69,0-1.32-.44-1.49-1.1-.14-.56.04-1.08.39-1.44.27-.27.64-.44,1.05-.44h9.13c.31,0,.59-.12.79-.33.2-.2.33-.48.33-.79,0-.62-.5-1.12-1.12-1.12H10.82c-.84,0-1.58-.69-1.55-1.53.01-.39.18-.75.44-1.01.27-.27.64-.44,1.05-.44h12.89c.31,0,.59-.13.79-.33.25-.25.38-.61.31-1-.09-.5-.63-.91-1.14-.91H1.75c-.69,0-1.32-.44-1.49-1.1-.14-.56.04-1.08.39-1.44.27-.27.64-.44,1.05-.44h29.95c.31,0,.59-.12.79-.33.2-.19.32-.46.33-.76.02-.63-.54-1.15-1.17-1.15h-9.47c-.73,0-1.36-.54-1.42-1.26-.03-.42.12-.8.39-1.07.25-.25.59-.4.97-.4h5.03c.31,0,.59-.12.79-.33.2-.19.32-.46.33-.76.02-.63-.54-.91-1.17-.91h-11.48s-8.53,0-8.53,0c-.88,0-1.61-.73-1.61-1.61,0-.44.18-.84.47-1.14.29-.29.69-.47,1.14-.47h10.88c.31,0,.59-.12.79-.33s.33-.48.33-.79c0-.62-.5-1.12-1.12-1.12h-2.56c-.77-.01-1.46-.58-1.53-1.35,0-.05,0-.1,0-.15,0-.41.17-.78.44-1.05.01-.01.03-.03.05-.04.26-.24.61-.39,1-.39h7.58c.31,0,.59-.12.79-.33.25-.25.38-.61.31-.99-.1-.54-.6-.91-1.14-.91h-9.57s-.03,0-.05,0c-.66-.14-1.16-.73-1.16-1.43,0-.4.16-.76.43-1.03.23-.23.88-.52.88-.52h75.82Z"/>
    <rect x="0" y="4.96" width="12.9" height="3.23" rx="1.47" ry="1.47"/>
    <rect x="11.41" y="36.23" width="6.45" height="3.23" rx="1.47" ry="1.47"/>
    <path d="M60.95 35.43c-.86 0-1.62-.15-2.28-.45-.66-.31-1.19-.75-1.58-1.31-.39-.57-.6-1.24-.62-2.01h3.1c.04.45.24.81.59 1.08.36.26.82.39 1.37.39.53 0 .94-.1 1.23-.31.3-.21.45-.48.45-.81 0-.37-.19-.64-.56-.81-.37-.19-.96-.37-1.77-.56-.89-.21-1.62-.42-2.19-.64-.57-.22-1.06-.55-1.47-.99-.41-.45-.61-1.05-.61-1.8 0-.67.19-1.27.56-1.8.38-.53.91-.95 1.59-1.26.68-.31 1.47-.47 2.36-.47.89 0 1.67.16 2.34.47.68.31 1.21.75 1.59 1.31.38.56.58 1.21.59 1.96h-3.1c-.02-.41-.19-.74-.5-.99-.31-.26-.73-.39-1.26-.39-.49 0-.87.09-1.14.28-.27.18-.41.43-.41.75 0 .36.19.63.56.81.38.18.97.36 1.77.56.89.21 1.62.43 2.19.64.57.21 1.06.54 1.47.99.41.45.62 1.05.62 1.8 0 .65-.19 1.24-.56 1.77-.37.53-.9.95-1.59 1.26-.68.31-1.48.47-2.39.47zM70.09 24.93v10.31h-2.95V24.93h2.95zm-.06-4.03v2.68h-2.84v-2.68h2.84zM77.93 35.43c-.89 0-1.69-.19-2.39-.56-.7-.38-1.25-.91-1.64-1.59-.39-.68-.59-1.47-.59-2.36 0-.9.2-1.69.59-2.37.4-.68.95-1.21 1.64-1.58.7-.38 1.5-.56 2.39-.56.89 0 1.69.18 2.39.56.7.37 1.25.9 1.64 1.58.4.68.59 1.47.59 2.37 0 .89-.19 1.68-.59 2.36-.39.68-.94 1.21-1.64 1.59-.7.37-1.5.56-2.39.56zm0-2.45c.53 0 .97-.19 1.31-.56.35-.38.53-.89.53-1.53 0-.65-.18-1.16-.53-1.53-.34-.38-.78-.56-1.31-.56-.53 0-.97.18-1.31.56-.34.37-.51.88-.51 1.53 0 .64.17 1.15.51 1.53.34.37.78.56 1.31.56zM89.46 35.24l-3.92-10.31h3.1l2.34 6.85 2.31-6.85h3.07l-3.89 10.31h-3.01z"/>
  </g>
</svg>