<?xml version="1.0" encoding="utf-8"?>
<!-- Generator: Adobe Illustrator 27.9.0, SVG Export Plug-In . SVG Version: 6.00 Build 0)  -->
<svg version="1.1" id="Layer_1" xmlns="http://www.w3.org/2000/svg" xmlns:xlink="http://www.w3.org/1999/xlink" x="0px" y="0px"
	 viewBox="0 0 141 40" style="enable-background:new 0 0 141 40;" xml:space="preserve">
<style type="text/css">
	.st0{enable-background:new    ;}
</style>
<image style="display:none;overflow:visible;enable-background:new    ;" width="720" height="420" xlink:href="2B495FE7.jpeg"  transform="matrix(1 0 0 1 -2537.5 -154.8496)">
</image>
<g>
	<g>
		<path d="M89.3,0.3l-3.7,13.1H51.5l-7.1,26.1H20c-0.6-0.2-1-0.8-1-1.4c0-0.4,0.2-0.8,0.5-1.1l0,0c0.3-0.3,0.7-0.5,1.1-0.5h3.6
			c0.3,0,0.6-0.1,0.8-0.3c0.2-0.2,0.4-0.6,0.3-1c-0.1-0.5-0.6-0.9-1.1-0.9h-5.6c-0.7,0-1.3-0.4-1.5-1.1c-0.1-0.6,0-1.1,0.4-1.4
			c0.3-0.3,0.6-0.4,1-0.4h9.1c0.3,0,0.6-0.1,0.8-0.3c0.2-0.2,0.3-0.5,0.3-0.8c0-0.6-0.5-1.1-1.1-1.1H10.9c-0.8,0-1.6-0.7-1.6-1.5
			c0-0.4,0.2-0.8,0.4-1c0.3-0.3,0.6-0.4,1.1-0.4h12.9c0.3,0,0.6-0.1,0.8-0.3c0.2-0.2,0.4-0.6,0.3-1c-0.1-0.5-0.6-0.9-1.1-0.9H1.9
			c-0.7,0-1.3-0.4-1.5-1.1c-0.1-0.6,0-1.1,0.4-1.4c0.3-0.3,0.6-0.4,1-0.4h30c0.3,0,0.6-0.1,0.8-0.3c0.2-0.2,0.3-0.5,0.3-0.8
			c0-0.6-0.5-1.1-1.2-1.1h-9.5c-0.7,0-1.4-0.5-1.4-1.3c0-0.4,0.1-0.8,0.4-1.1c0.2-0.2,0.6-0.4,1-0.4h5c0.3,0,0.6-0.1,0.8-0.3
			c0.2-0.2,0.3-0.5,0.3-0.8c0-0.6-0.5-0.9-1.2-0.9l-11.5,0l0,0H7.1c-0.9,0-1.6-0.7-1.6-1.6c0-0.4,0.2-0.8,0.5-1.1
			c0.3-0.3,0.7-0.5,1.1-0.5H18c0.3,0,0.6-0.1,0.8-0.3s0.3-0.5,0.3-0.8c0-0.6-0.5-1.1-1.1-1.1l-2.6,0c-0.8,0-1.5-0.6-1.5-1.3
			c0-0.1,0-0.1,0-0.2c0-0.4,0.2-0.8,0.4-1c0,0,0,0,0.1,0c0.3-0.2,0.6-0.4,1-0.4H23c0.3,0,0.6-0.1,0.8-0.3c0.2-0.2,0.4-0.6,0.3-1
			c-0.1-0.5-0.6-0.9-1.1-0.9h-9.6c0,0,0,0-0.1,0c-0.7-0.1-1.2-0.7-1.2-1.4c0-0.4,0.2-0.8,0.4-1c0.2-0.2,0.9-0.5,0.9-0.5L89.3,0.3
			L89.3,0.3z"/>
		<path d="M11.5,8.5H1.6C0.8,8.5,0.1,7.8,0.1,7V6.7c0-0.8,0.7-1.5,1.5-1.5h10c0.8,0,1.5,0.7,1.5,1.5V7C13,7.8,12.3,8.5,11.5,8.5z"/>
		<path d="M16.5,39.7H13c-0.8,0-1.5-0.7-1.5-1.5V38c0-0.8,0.7-1.5,1.5-1.5h3.5c0.8,0,1.5,0.7,1.5,1.5v0.3
			C18,39.1,17.3,39.7,16.5,39.7z"/>
	</g>
	<g class="st0">
		<path d="M53.7,24.4v-4.2h16.8v4.2H53.7z M53.7,37V26.5h16.8v4.2H57.9v2.1h12.6V37H53.7z"/>
		<path d="M73.4,24.3c0-0.7,0.2-1.4,0.5-2c0.4-0.6,0.9-1.1,1.5-1.5c0.6-0.4,1.3-0.5,2-0.5h12.7v4.2H73.4V24.3z M77.6,30.6
			c0,0.6,0.2,1.1,0.7,1.6c0.4,0.4,1,0.7,1.6,0.7h10.3V37H77.3c-0.7,0-1.4-0.2-2-0.5c-0.6-0.3-1.1-0.8-1.4-1.4
			c-0.3-0.6-0.5-1.2-0.5-2v-6.6h4.2V30.6z"/>
		<path d="M92.9,24.2c0-0.7,0.2-1.4,0.5-2c0.4-0.6,0.8-1.1,1.4-1.4c0.6-0.4,1.3-0.5,2-0.5h12.8v4.2H98c-0.3,0-0.5,0.1-0.7,0.3
			c-0.2,0.2-0.3,0.4-0.3,0.7v0.1c0,0.3,0.1,0.5,0.3,0.7c0.2,0.2,0.4,0.3,0.7,0.3h7.5c0.7,0,1.4,0.2,2,0.5c0.6,0.4,1.1,0.9,1.5,1.5
			c0.4,0.6,0.6,1.3,0.6,2.1v2.3c0,0.8-0.2,1.4-0.6,2.1c-0.4,0.6-0.9,1.1-1.5,1.5c-0.6,0.4-1.3,0.5-2.1,0.5H92.9v-4.2h11.5
			c0.3,0,0.5-0.1,0.7-0.3c0.2-0.2,0.3-0.5,0.3-0.7s-0.1-0.5-0.3-0.7c-0.2-0.2-0.5-0.3-0.7-0.3h-7.8c-0.7,0-1.3-0.2-1.9-0.5
			s-1-0.8-1.4-1.4c-0.3-0.6-0.5-1.2-0.5-1.9V24.2z"/>
		<path d="M120.8,20.3c1.2,0,2.2,0.2,3.3,0.7c1,0.4,1.9,1,2.7,1.8s1.4,1.7,1.8,2.7c0.4,1,0.7,2.1,0.7,3.3c0,1.2-0.2,2.2-0.7,3.3
			c-0.4,1-1,1.9-1.8,2.7s-1.7,1.4-2.7,1.8c-1,0.4-2.1,0.7-3.3,0.7c-1.2,0-2.2-0.2-3.3-0.7s-1.9-1-2.7-1.8c-0.8-0.8-1.4-1.7-1.8-2.7
			c-0.4-1-0.7-2.1-0.7-3.3c0-0.7,0.1-1.4,0.3-2.1h4.5c-0.4,0.6-0.6,1.3-0.6,2.1c0,0.8,0.2,1.5,0.6,2.1c0.4,0.6,0.9,1.1,1.5,1.5
			s1.3,0.6,2.1,0.6s1.5-0.2,2.1-0.6s1.1-0.9,1.5-1.5c0.4-0.6,0.6-1.3,0.6-2.1c0-0.8-0.2-1.5-0.6-2.1c-0.4-0.6-0.9-1.1-1.5-1.5
			s-1.3-0.6-2.1-0.6h-7.3c0.5-0.8,1.1-1.6,1.8-2.2c0.7-0.6,1.6-1.1,2.5-1.5C118.7,20.4,119.7,20.3,120.8,20.3z"/>
	</g>
</g>
</svg>
